<?xml version="1.0" encoding="utf-8"?>
<!-- Generator: Adobe Adobe Illustrator 24.2.0, SVG Export Plug-In . SVG Version: 6.00 Build 0)  -->
<svg version="1.1" id="Capa_1" xmlns="http://www.w3.org/2000/svg" xmlns:xlink="http://www.w3.org/1999/xlink" x="0px" y="0px"
	 width="1090px" height="660px" viewBox="0 0 1090 660" style="enable-background:new 0 0 1090 660;" xml:space="preserve">
<style type="text/css">
	.st0{fill:#D3AF36;}
	.st1{fill:#0D52BA;}
	.st2{fill:#E3B100;}
	.st3{fill:#FEFFF0;}
	.st4{fill:#070000;}
	.st5{fill:#F4F3EA;}
	.st6{fill:#8ABCA3;}
	.st7{opacity:0.88;}
	.st8{fill:#FFFFFF;}
	.st9{stroke:#000000;stroke-miterlimit:10;}
</style>
<g>
	<g>
		<g>
			<g>
				<g>
					<path class="st0" d="M802.92,246.5c-2.56,24.09-24.23,41.03-44.81,46.93c-0.29,2.46,0.01,1.6,1.33,2.11
						c3.23,1.24,7.02,1.68,10.38,3.15c50.25,21.88,41.36,120.09-15.88,114.67c-16.05-1.52-26.98-10.93-37.3-23.06
						c-1.64-1.93-7.04-11.08-7.68-11.18c-4.14-0.68-11.83,13.44-15.72,16.65c-17.79,14.68-48.11,12.61-62.29-6.58
						c-32.19-43.56,8.32-120.96,59.52-68.04c3.83,3.96,6.29,10.29,12.35,11.63c5.03-15.31,17.21-25.25,29.55-33.8
						c0.1-2.49-13.38-1.31-15.7-1.53c-49.46-4.64-91.41-44.15-97.61-96.72l10.28-1.03c7.23,35.69,37.11,65.47,71.59,69.5
						c-21.93-27.12-15.17-60.41,10.57-81.12c57.42-46.21,138.34,45.88,156.02,100.06c23.83,73.02-2.95,144.93-60.47,188.73
						c-70.92,54.01-171.26,53.47-239.1-5.87h-63.39c3.12-9.94,1.85-17.01-2.67-25.93c-13.03-25.71-34.09-56.7-49.74-81.55
						c-1.13-1.8-5.58-9.98-7.16-9.56l-61.06,97.82c-3.97,13.74-76.7,19.22-76.7,19.22l0.97-3.51c9.02-2.34,18.98-4.56,27-9.77
						c15.38-10,29.48-36.86,40.7-52.55c46.75-65.34,97.16-127.93,140.14-195.95c7.23-13.92-7.86-18.95-17.2-23.76l-0.01-1.49
						c0.16-1.43,1.21,0.49,1.43,0.49h79.6l-16.22,9.57c-23.59,24.12-41.01,53.6-60.22,81.55c-4.77,6.94-20.22,24.93-21.53,31.69
						c-2.08,10.69,6.21,22.94,11.4,31.87c25.54,43.86,79.81,117.44,124.19,138.96c86.66,42.02,205.61,1.34,230.95-101.7
						c13.4-54.47-4.57-112.39-45.5-147.54C802.49,234.5,803.51,240.97,802.92,246.5z M785.42,256.74c6.12-6.7,8.01-15.15,7.01-24.36
						c-4.01-37.2-98.4-34.49-92.39,14.04C704.41,281.69,766.89,277.02,785.42,256.74z M756,320.96
						c-16.78,1.49-26.23,13.87-34.52,28.03c-2.56,4.37-8.38,13.14-6.35,17.65c8.3,18.45,37.74,25.39,54.88,19.67
						C807.15,373.9,795.52,317.45,756,320.96z M637.38,371.76c9.26,10,24.82,10.9,35.8,3.8c5.19-3.36,20.67-22.45,21.04-28.24
						c0.54-8.52-20.91-17.1-27.58-18.13c-14.03-2.18-30.82,2.42-35.07,18.47C629.47,355.63,631.89,365.82,637.38,371.76z"/>
				</g>
			</g>
			<g>
				<path class="st0" d="M446.36,275.21c-15.08,3.64-33.82,1.11-46.82-8.15c-19.8-14.09-43.44-86.16-53.05-111.56
					c-4.88-12.91-17.35-36.39-17.43-49.24c-0.07-11.14,5.26-29.43,11.13-38.75c11.63-18.46,19.43-1.45,25.04,10.65
					c21.07,45.38,42.43,95.43,61.32,141.94C429.17,226.57,447.95,272.79,446.36,275.21z"/>
			</g>
			<g>
				<path class="st0" d="M360.59,268.19h-51.95c-4.08,0-10.27,16.13-11.67,19.93c-6.35,17.19-10.57,36.24-14.6,54.21
					c0.21,5.47,5.7,9.28,10.3,10.37c4.66,1.1,14.26-0.24,15.5,6.29c-28.08,0.7-56.32-0.9-84.4-0.04c-4.06,0.13-7.87,1.67-12.41,1.1
					c-2.16-0.27-4.84-2.07-3.28-4.06c1.32-1.69,18.87-4.43,22.57-6.41c11.28-6.03,24.12-39.46,29.18-52.33
					c5.72-14.53,10.77-35.82,18.19-48.35c8.28-13.99,14.18-7.81,26.76-7.9c12.12-0.09,33.39-3.61,44.41,0.42
					C355.37,243.68,359.06,261.77,360.59,268.19z"/>
			</g>
		</g>
	</g>
	<path class="st4" d="M809.12,245.54c-2.56,24.09-24.23,41.03-44.81,46.93c-0.29,2.46,0.01,1.6,1.33,2.11
		c3.23,1.24,7.02,1.68,10.38,3.15c50.25,21.88,41.36,120.09-15.88,114.67c-16.05-1.52-26.98-10.93-37.3-23.06
		c-1.64-1.93-7.04-11.08-7.68-11.18c-4.14-0.68-11.83,13.44-15.72,16.65c-17.79,14.68-48.11,12.61-62.29-6.58
		c-32.19-43.56,8.32-120.96,59.52-68.04c3.83,3.96,6.29,10.29,12.35,11.63c5.03-15.31,17.21-25.25,29.55-33.8
		c0.1-2.49-13.38-1.31-15.7-1.53c-49.46-4.64-91.41-44.15-97.61-96.72l10.28-1.03c7.23,35.69,37.11,65.47,71.59,69.5
		c-21.93-27.12-15.17-60.41,10.57-81.12c57.42-46.21,138.34,45.88,156.02,100.06c23.83,73.02-2.95,144.93-60.47,188.73
		c-70.92,54.01-171.26,53.47-239.1-5.87h-63.39c3.12-9.94,1.85-17.01-2.67-25.93c-13.03-25.71-34.09-56.7-49.74-81.55
		c-1.13-1.8-5.58-9.98-7.16-9.56l-61.06,97.82c-3.97,13.74,13.07,10.66,17.67,19.22h-94.38l0.97-3.51c9.02-2.34,18.98-4.56,27-9.77
		c15.38-10,29.48-36.86,40.7-52.55c46.75-65.34,97.16-127.93,140.14-195.95c7.23-13.92-7.86-18.95-17.2-23.76l-0.01-1.49
		c0.16-1.43,1.21,0.49,1.43,0.49h79.6l-16.22,9.57c-23.59,24.12-41.01,53.6-60.22,81.55c-4.77,6.94-20.22,24.93-21.53,31.69
		c-2.08,10.69,6.21,22.94,11.4,31.87c25.54,43.86,79.81,117.44,124.19,138.96c86.66,42.02,205.61,1.34,230.95-101.7
		c13.4-54.47-4.57-112.39-45.5-147.54C808.69,233.53,809.71,240,809.12,245.54z M791.63,255.77c6.12-6.7,8.01-15.15,7.01-24.36
		c-4.01-37.2-98.4-34.49-92.39,14.04C710.62,280.72,773.1,276.06,791.63,255.77z M762.21,319.99
		c-16.78,1.49-26.23,13.87-34.52,28.03c-2.56,4.37-8.38,13.14-6.35,17.65c8.3,18.45,37.74,25.39,54.88,19.67
		C813.36,372.93,801.73,316.49,762.21,319.99z M643.59,370.79c9.26,10,24.82,10.9,35.8,3.8c5.19-3.36,20.67-22.45,21.04-28.24
		c0.54-8.52-20.91-17.1-27.58-18.13c-14.03-2.18-30.82,2.42-35.07,18.47C635.68,354.66,638.1,364.85,643.59,370.79z"/>
	<path class="st4" d="M452.56,274.24c-15.08,3.64-33.82,1.11-46.82-8.15c-19.8-14.09-43.44-86.16-53.05-111.56
		c-4.88-12.91-17.35-36.39-17.43-49.24c-0.07-11.14,5.26-29.43,11.13-38.75c11.63-18.46,19.43-1.45,25.04,10.65
		c21.07,45.38,42.43,95.43,61.32,141.94C435.38,225.6,454.16,271.82,452.56,274.24z"/>
	<path class="st4" d="M366.8,267.23h-51.95c-4.08,0-10.27,16.13-11.67,19.93c-6.35,17.19-10.57,36.24-14.6,54.21
		c0.21,5.47,5.7,9.28,10.3,10.37c4.66,1.1,14.26-0.24,15.5,6.29c-28.08,0.7-56.32-0.9-84.4-0.04c-4.06,0.13-7.87,1.67-12.41,1.1
		c-2.16-0.27-4.84-2.07-3.28-4.06c1.32-1.69,18.87-4.43,22.57-6.41c11.28-6.03,24.12-39.46,29.18-52.33
		c5.72-14.53,10.77-35.82,18.19-48.35c8.28-13.99,14.18-7.81,26.76-7.9c12.12-0.09,33.39-3.61,44.41,0.42
		C361.58,242.71,365.26,260.81,366.8,267.23z"/>
	<polygon class="st5" points="505.02,182.99 500.25,184.45 505.02,185.54 	"/>
</g>
</svg>
