<?xml version="1.0" encoding="utf-8"?>
<!-- Generator: Adobe Adobe Illustrator 24.2.0, SVG Export Plug-In . SVG Version: 6.00 Build 0)  -->
<svg version="1.1" id="Capa_1" xmlns="http://www.w3.org/2000/svg" xmlns:xlink="http://www.w3.org/1999/xlink" x="0px" y="0px"
	 width="1058.28px" height="714.34px" viewBox="0 0 1058.28 714.34" style="enable-background:new 0 0 1058.28 714.34;"
	 xml:space="preserve">
<style type="text/css">
	.st0{fill:#D3AF36;}
	.st1{fill:#0D52BA;}
	.st2{fill:#E3B100;}
	.st3{fill:#FEFFF0;}
	.st4{fill:#070000;}
	.st5{fill:#F4F3EA;}
	.st6{fill:#8ABCA3;}
	.st7{opacity:0.88;}
	.st8{fill:#FFFFFF;}
	.st9{stroke:#000000;stroke-miterlimit:10;}
</style>
<g>
	<g>
		<g>
			<g>
				<g>
					<path class="st0" d="M737.75,317.32c-2.64,23.45-24.96,39.94-46.17,45.69c-0.3,2.4,0.01,1.56,1.37,2.06
						c3.32,1.21,7.23,1.64,10.69,3.06c51.78,21.3,42.62,116.91-16.37,111.64c-16.54-1.48-27.81-10.64-38.44-22.45
						c-1.69-1.88-7.25-10.79-7.92-10.89c-4.27-0.66-12.19,13.08-16.2,16.21c-18.33,14.29-49.58,12.28-64.19-6.4
						c-33.17-42.41,8.57-117.76,61.33-66.24c3.95,3.85,6.49,10.02,12.73,11.33c5.18-14.9,17.73-24.58,30.45-32.91
						c0.1-2.42-13.79-1.27-16.18-1.49c-50.96-4.52-94.19-42.98-100.58-94.17l10.59-1c7.45,34.75,38.24,63.74,73.77,67.67
						c-22.6-26.4-15.63-58.82,10.89-78.98c59.16-44.99,142.54,44.66,160.76,97.41c24.55,71.09-3.04,141.1-62.31,183.74
						c-73.08,52.58-176.47,52.06-246.37-5.71H430.3c3.22-9.67,1.9-16.56-2.75-25.24c-13.42-25.03-35.12-55.2-51.25-79.39
						c-1.17-1.75-5.75-9.71-7.38-9.31l-62.91,95.23c-4.09,13.38-79.03,18.71-79.03,18.71l1-3.42c9.29-2.28,19.56-4.44,27.82-9.51
						c15.84-9.74,30.38-35.89,41.94-51.16c48.17-63.61,100.11-124.55,144.4-190.77c7.45-13.55-8.1-18.45-17.72-23.14l-0.01-1.45
						c0.16-1.39,1.25,0.48,1.48,0.48h82.02l-16.71,9.32c-24.3,23.48-42.26,52.19-62.05,79.4c-4.91,6.75-20.83,24.27-22.19,30.85
						c-2.14,10.41,6.4,22.34,11.75,31.02c26.32,42.7,82.23,114.34,127.96,135.28c89.3,40.91,211.86,1.31,237.97-99.02
						c13.8-53.03-4.71-109.42-46.89-143.64C737.31,305.64,738.36,311.94,737.75,317.32z M719.72,327.29
						c6.3-6.52,8.25-14.75,7.23-23.72c-4.13-36.22-101.39-33.58-95.2,13.67C636.26,351.58,700.64,347.04,719.72,327.29z
						 M689.42,389.81c-17.29,1.45-27.03,13.5-35.57,27.29c-2.63,4.25-8.64,12.79-6.55,17.18c8.55,17.96,38.88,24.72,56.54,19.15
						C742.12,441.35,730.14,386.4,689.42,389.81z M567.19,439.27c9.54,9.73,25.58,10.61,36.89,3.7c5.35-3.27,21.3-21.86,21.68-27.49
						c0.56-8.29-21.54-16.65-28.42-17.66c-14.46-2.12-31.76,2.36-36.13,17.99C559.04,423.57,561.53,433.49,567.19,439.27z"/>
				</g>
			</g>
			<g>
				<path class="st0" d="M370.35,345.27c-15.54,3.55-34.85,1.08-48.25-7.93c-20.4-13.72-44.76-83.88-54.67-108.61
					c-5.03-12.57-17.87-35.43-17.96-47.94c-0.07-10.84,5.41-28.65,11.47-37.73c11.98-17.97,20.02-1.41,25.81,10.37
					c21.71,44.18,43.72,92.91,63.18,138.19C352.64,297.92,372,342.91,370.35,345.27z"/>
			</g>
			<g>
				<path class="st0" d="M281.98,338.44h-53.53c-4.2,0-10.59,15.71-12.03,19.4c-6.54,16.74-10.9,35.29-15.05,52.78
					c0.21,5.33,5.87,9.03,10.61,10.09c4.8,1.07,14.69-0.24,15.97,6.12c-28.94,0.68-58.03-0.88-86.97-0.04
					c-4.18,0.12-8.11,1.63-12.78,1.07c-2.22-0.27-4.99-2.02-3.38-3.96c1.36-1.64,19.44-4.31,23.26-6.24
					c11.62-5.87,24.85-38.42,30.07-50.95c5.9-14.15,11.1-34.87,18.74-47.07c8.53-13.62,14.61-7.6,27.58-7.69
					c12.49-0.09,34.41-3.52,45.76,0.4C276.6,314.57,280.4,332.19,281.98,338.44z"/>
			</g>
		</g>
	</g>
	<path class="st1" d="M744.15,316.38c-2.64,23.45-24.96,39.94-46.17,45.69c-0.3,2.4,0.01,1.56,1.37,2.06
		c3.32,1.21,7.23,1.64,10.69,3.06c51.78,21.3,42.62,116.91-16.37,111.64c-16.54-1.48-27.81-10.64-38.44-22.45
		c-1.69-1.88-7.25-10.79-7.92-10.89c-4.27-0.66-12.19,13.08-16.2,16.21c-18.33,14.29-49.58,12.28-64.19-6.4
		c-33.17-42.41,8.57-117.76,61.33-66.24c3.95,3.85,6.49,10.02,12.73,11.33c5.18-14.9,17.73-24.58,30.45-32.91
		c0.1-2.42-13.79-1.27-16.18-1.49c-50.96-4.52-94.19-42.98-100.58-94.17l10.59-1c7.45,34.75,38.24,63.74,73.77,67.67
		c-22.6-26.4-15.63-58.82,10.89-78.98c59.16-44.99,142.54,44.66,160.76,97.41c24.55,71.09-3.04,141.1-62.31,183.74
		c-73.08,52.58-176.47,52.06-246.37-5.71H436.7c3.22-9.67,1.9-16.56-2.75-25.24c-13.42-25.03-35.12-55.2-51.25-79.39
		c-1.17-1.75-5.75-9.71-7.38-9.31l-62.91,95.23c-4.09,13.38,13.47,10.38,18.21,18.71h-97.24l1-3.42c9.29-2.28,19.56-4.44,27.82-9.51
		c15.84-9.74,30.38-35.89,41.94-51.16c48.17-63.61,100.11-124.55,144.4-190.77c7.45-13.55-8.1-18.45-17.72-23.14l-0.01-1.45
		c0.16-1.39,1.25,0.48,1.48,0.48h82.02l-16.71,9.32c-24.3,23.48-42.26,52.19-62.05,79.4c-4.91,6.75-20.83,24.27-22.19,30.85
		c-2.14,10.41,6.4,22.34,11.75,31.02c26.32,42.7,82.23,114.34,127.96,135.28c89.3,40.91,211.86,1.31,237.97-99.02
		c13.8-53.03-4.71-109.42-46.89-143.64C743.71,304.7,744.76,310.99,744.15,316.38z M726.12,326.35c6.3-6.52,8.25-14.75,7.23-23.72
		c-4.13-36.22-101.39-33.58-95.2,13.67C642.65,350.64,707.03,346.1,726.12,326.35z M695.81,388.87
		c-17.29,1.45-27.03,13.5-35.57,27.29c-2.63,4.25-8.64,12.79-6.55,17.18c8.55,17.96,38.88,24.72,56.54,19.15
		C748.51,440.41,736.53,385.46,695.81,388.87z M573.58,438.33c9.54,9.73,25.58,10.61,36.89,3.7c5.35-3.27,21.3-21.86,21.68-27.49
		c0.56-8.29-21.54-16.65-28.42-17.66c-14.46-2.12-31.76,2.36-36.13,17.99C565.43,422.63,567.92,432.55,573.58,438.33z"/>
	<path class="st1" d="M376.75,344.33c-15.54,3.55-34.85,1.08-48.25-7.93c-20.4-13.72-44.76-83.88-54.67-108.61
		c-5.03-12.57-17.87-35.43-17.96-47.94c-0.07-10.84,5.41-28.65,11.47-37.73c11.98-17.97,20.02-1.41,25.81,10.37
		c21.71,44.18,43.72,92.91,63.18,138.19C359.04,296.98,378.39,341.97,376.75,344.33z"/>
	<path class="st1" d="M288.38,337.5h-53.53c-4.2,0-10.59,15.71-12.03,19.4c-6.54,16.74-10.9,35.29-15.05,52.78
		c0.21,5.33,5.87,9.03,10.61,10.09c4.8,1.07,14.69-0.24,15.97,6.12c-28.94,0.68-58.03-0.88-86.97-0.04
		c-4.18,0.12-8.11,1.63-12.78,1.07c-2.22-0.27-4.99-2.02-3.38-3.96c1.36-1.64,19.44-4.31,23.26-6.24
		c11.62-5.87,24.85-38.42,30.07-50.95c5.9-14.15,11.1-34.87,18.74-47.07c8.53-13.62,14.61-7.6,27.58-7.69
		c12.49-0.09,34.41-3.52,45.76,0.4C283,313.63,286.8,331.25,288.38,337.5z"/>
	<polygon class="st2" points="430.8,255.49 425.88,256.92 430.8,257.97 	"/>
</g>
</svg>
