<?xml version="1.0" encoding="utf-8"?>
<!-- Generator: Adobe Adobe Illustrator 24.2.0, SVG Export Plug-In . SVG Version: 6.00 Build 0)  -->
<svg version="1.1" id="Capa_1" xmlns="http://www.w3.org/2000/svg" xmlns:xlink="http://www.w3.org/1999/xlink" x="0px" y="0px"
	 width="956.32px" height="685.96px" viewBox="0 0 956.32 685.96" style="enable-background:new 0 0 956.32 685.96;"
	 xml:space="preserve">
<style type="text/css">
	.st0{fill:#D3AF36;}
	.st1{fill:#0D52BA;}
	.st2{fill:#E3B100;}
	.st3{fill:#FEFFF0;}
	.st4{fill:#070000;}
	.st5{fill:#F4F3EA;}
	.st6{fill:#8ABCA3;}
	.st7{opacity:0.88;}
	.st8{fill:#FFFFFF;}
	.st9{stroke:#000000;stroke-miterlimit:10;}
</style>
<g>
	<g>
		<g>
			<g>
				<g>
					<path class="st0" d="M722.7,315.93c-2.7,24.36-25.49,41.49-47.14,47.46c-0.31,2.49,0.01,1.62,1.4,2.14
						c3.39,1.26,7.38,1.7,10.92,3.18c52.87,22.12,43.52,121.45-16.71,115.97c-16.89-1.54-28.39-11.05-39.25-23.33
						c-1.72-1.95-7.41-11.2-8.08-11.31c-4.36-0.69-12.45,13.59-16.54,16.84c-18.72,14.85-50.62,12.76-65.54-6.65
						c-33.87-44.06,8.75-122.33,62.63-68.81c4.03,4,6.62,10.4,12.99,11.77c5.29-15.48,18.11-25.54,31.09-34.19
						c0.11-2.52-14.08-1.32-16.52-1.54c-52.04-4.69-96.18-44.65-102.7-97.82l10.82-1.04c7.61,36.1,39.05,66.21,75.33,70.29
						c-23.08-27.42-15.96-61.1,11.12-82.04c60.42-46.74,145.55,46.39,164.16,101.19c25.07,73.84-3.1,146.57-63.62,190.87
						c-74.62,54.62-180.2,54.08-251.57-5.93h-66.7c3.28-10.05,1.94-17.2-2.81-26.22c-13.71-26-35.86-57.34-52.33-82.47
						c-1.19-1.82-5.87-10.09-7.53-9.67l-64.24,98.92c-4.18,13.9-80.7,19.44-80.7,19.44l1.02-3.55c9.49-2.37,19.97-4.61,28.4-9.88
						c16.18-10.11,31.02-37.28,42.83-53.14c49.19-66.08,102.23-129.38,147.45-198.17c7.61-14.08-8.27-19.17-18.09-24.03l-0.01-1.5
						c0.17-1.44,1.28,0.5,1.51,0.5h83.75l-17.06,9.68c-24.82,24.39-43.15,54.21-63.36,82.47c-5.02,7.01-21.28,25.21-22.66,32.05
						c-2.19,10.81,6.53,23.2,12,32.23c26.87,44.35,83.97,118.77,130.67,140.53c91.18,42.49,216.34,1.36,243-102.86
						c14.1-55.08-4.81-113.66-47.88-149.21C722.24,303.79,723.32,310.33,722.7,315.93z M704.28,326.28
						c6.44-6.78,8.42-15.32,7.38-24.64c-4.22-37.62-103.54-34.88-97.21,14.2C619.05,351.52,684.79,346.8,704.28,326.28z
						 M673.34,391.23c-17.66,1.51-27.6,14.02-36.32,28.35c-2.69,4.42-8.82,13.29-6.68,17.85c8.73,18.66,39.7,25.68,57.74,19.89
						C727.15,444.77,714.92,387.69,673.34,391.23z M548.53,442.6c9.74,10.11,26.12,11.02,37.67,3.85
						c5.46-3.39,21.75-22.71,22.14-28.56c0.57-8.61-22-17.29-29.02-18.34c-14.77-2.2-32.43,2.45-36.9,18.68
						C540.2,426.29,542.75,436.6,548.53,442.6z"/>
				</g>
			</g>
			<g>
				<path class="st0" d="M347.53,344.96c-15.87,3.68-35.58,1.12-49.27-8.24c-20.83-14.25-45.71-87.13-55.82-112.82
					c-5.14-13.05-18.25-36.81-18.34-49.8c-0.08-11.27,5.53-29.76,11.71-39.19c12.23-18.67,20.44-1.46,26.35,10.77
					c22.16,45.89,44.64,96.51,64.51,143.54C329.45,295.77,349.21,342.51,347.53,344.96z"/>
			</g>
			<g>
				<path class="st0" d="M257.29,337.87h-54.66c-4.29,0-10.81,16.32-12.28,20.16c-6.68,17.39-11.13,36.65-15.36,54.82
					c0.22,5.54,5.99,9.38,10.84,10.49c4.9,1.12,15-0.25,16.3,6.36c-29.55,0.71-59.26-0.91-88.8-0.04
					c-4.27,0.13-8.28,1.69-13.05,1.11c-2.27-0.28-5.09-2.1-3.45-4.11c1.39-1.71,19.86-4.48,23.75-6.48
					c11.86-6.1,25.37-39.91,30.71-52.92c6.02-14.7,11.33-36.22,19.14-48.9c8.71-14.15,14.92-7.9,28.16-7.99
					c12.75-0.09,35.13-3.65,46.73,0.42C251.8,313.07,255.68,331.38,257.29,337.87z"/>
			</g>
		</g>
	</g>
	<path class="st5" d="M729.23,314.95c-2.7,24.36-25.49,41.49-47.14,47.46c-0.31,2.49,0.01,1.62,1.4,2.14
		c3.39,1.26,7.38,1.7,10.92,3.18c52.87,22.12,43.52,121.45-16.71,115.97c-16.89-1.54-28.39-11.05-39.25-23.33
		c-1.72-1.95-7.41-11.2-8.08-11.31c-4.36-0.69-12.45,13.59-16.54,16.84c-18.72,14.85-50.62,12.76-65.54-6.65
		c-33.87-44.06,8.75-122.33,62.63-68.81c4.03,4,6.62,10.4,12.99,11.77c5.29-15.48,18.11-25.54,31.09-34.19
		c0.11-2.52-14.08-1.32-16.52-1.54c-52.04-4.69-96.18-44.65-102.7-97.82l10.82-1.04c7.61,36.1,39.05,66.21,75.33,70.29
		c-23.08-27.42-15.96-61.1,11.12-82.04c60.41-46.74,145.55,46.39,164.16,101.19c25.07,73.84-3.1,146.57-63.62,190.87
		c-74.62,54.62-180.2,54.08-251.57-5.93h-66.7c3.28-10.05,1.94-17.2-2.81-26.22c-13.71-26-35.86-57.34-52.33-82.47
		c-1.19-1.82-5.87-10.09-7.53-9.67l-64.24,98.92c-4.18,13.9,13.75,10.78,18.59,19.44h-99.3l1.02-3.55
		c9.49-2.37,19.97-4.61,28.4-9.88c16.18-10.11,31.02-37.28,42.83-53.14c49.19-66.08,102.23-129.38,147.45-198.17
		c7.61-14.08-8.27-19.17-18.09-24.03l-0.01-1.5c0.17-1.44,1.28,0.5,1.51,0.5h83.75l-17.06,9.68
		c-24.82,24.39-43.15,54.21-63.36,82.47c-5.02,7.01-21.28,25.21-22.66,32.05c-2.19,10.81,6.53,23.2,12,32.23
		c26.87,44.35,83.97,118.77,130.67,140.53c91.18,42.49,216.34,1.36,243-102.86c14.1-55.08-4.81-113.66-47.88-149.21
		C728.77,302.81,729.85,309.35,729.23,314.95z M710.82,325.31c6.44-6.78,8.42-15.32,7.38-24.64c-4.22-37.62-103.54-34.88-97.21,14.2
		C625.58,350.54,691.32,345.82,710.82,325.31z M679.87,390.25c-17.66,1.51-27.6,14.02-36.32,28.35c-2.69,4.42-8.82,13.29-6.68,17.85
		c8.73,18.66,39.7,25.68,57.74,19.89C733.68,443.79,721.45,386.71,679.87,390.25z M555.06,441.62c9.74,10.11,26.12,11.02,37.67,3.85
		c5.46-3.39,21.75-22.71,22.14-28.56c0.57-8.61-22-17.29-29.02-18.34c-14.77-2.2-32.43,2.45-36.9,18.68
		C546.73,425.32,549.28,435.62,555.06,441.62z"/>
	<path class="st5" d="M354.06,343.98c-15.87,3.68-35.58,1.12-49.27-8.24c-20.83-14.25-45.71-87.13-55.82-112.82
		c-5.14-13.05-18.25-36.81-18.34-49.8c-0.08-11.27,5.53-29.76,11.71-39.19c12.23-18.67,20.44-1.46,26.35,10.77
		c22.16,45.89,44.64,96.51,64.51,143.54C335.98,294.79,355.74,341.54,354.06,343.98z"/>
	<path class="st5" d="M263.82,336.89h-54.66c-4.29,0-10.81,16.32-12.28,20.16c-6.68,17.39-11.13,36.65-15.36,54.82
		c0.22,5.54,5.99,9.38,10.84,10.49c4.9,1.12,15-0.25,16.3,6.36c-29.55,0.71-59.26-0.91-88.8-0.04c-4.27,0.13-8.28,1.69-13.05,1.11
		c-2.27-0.28-5.09-2.1-3.45-4.11c1.39-1.71,19.86-4.48,23.75-6.48c11.86-6.1,25.37-39.91,30.71-52.92
		c6.02-14.7,11.33-36.22,19.14-48.9c8.71-14.15,14.92-7.9,28.16-7.99c12.75-0.09,35.13-3.65,46.73,0.42
		C258.33,312.1,262.21,330.4,263.82,336.89z"/>
	<polygon class="st5" points="409.25,251.7 404.23,253.18 409.25,254.28 	"/>
</g>
</svg>
